# Blender v3.0.1 OBJ File: 'arrow.blend'
# www.blender.org
mtllib arrow.mtl
o Cylinder
v 0.000000 0.023716 0.490960
v 0.000000 1.903992 -1.000000
v 0.195090 1.903992 -0.980785
v -0.095782 0.023716 0.481527
v 0.382683 1.903992 -0.923880
v 0.555570 1.903992 -0.831470
v -0.187882 0.023716 0.453588
v 0.707107 1.903992 -0.707107
v 0.831470 1.903992 -0.555570
v -0.272763 0.023716 0.408219
v 0.923880 1.903992 -0.382683
v 0.980785 1.903992 -0.195090
v -0.347161 0.023716 0.347161
v 1.000000 1.903992 0.000000
v 0.980785 1.903992 0.195090
v 0.923880 1.903992 0.382683
v -0.408219 0.023716 0.272763
v 0.831470 1.903992 0.555570
v 0.707107 1.903992 0.707107
v -0.453588 0.023716 0.187882
v 0.555570 1.903992 0.831470
v 0.382684 1.903992 0.923880
v -0.481527 0.023716 0.095782
v 0.195090 1.903992 0.980785
v -0.490960 0.023716 -0.000000
v -0.000000 1.903992 1.000000
v -0.195090 1.903992 0.980785
v -0.481527 0.023716 -0.095782
v -0.382683 1.903992 0.923880
v -0.555570 1.903992 0.831470
v -0.453588 0.023716 -0.187882
v -0.707107 1.903992 0.707107
v -0.831470 1.903992 0.555570
v -0.408219 0.023716 -0.272763
v -0.923880 1.903992 0.382684
v -0.980785 1.903992 0.195090
v -0.347161 0.023716 -0.347161
v -1.000000 1.903992 -0.000000
v -0.980785 1.903992 -0.195090
v -0.272763 0.023716 -0.408219
v -0.923880 1.903992 -0.382684
v -0.831470 1.903992 -0.555570
v -0.187882 0.023716 -0.453588
v -0.707107 1.903992 -0.707107
v -0.555570 1.903992 -0.831470
v -0.095782 0.023716 -0.481527
v -0.382683 1.903992 -0.923880
v -0.195090 1.903992 -0.980785
v 0.000000 3.903992 0.000000
v 0.000000 0.023716 -0.490960
v 0.095782 0.023716 -0.481527
v 0.187882 0.023716 -0.453588
v 0.272763 0.023716 -0.408219
v 0.347161 0.023716 -0.347161
v 0.408219 0.023716 -0.272763
v 0.453588 0.023716 -0.187882
v 0.481527 0.023716 -0.095782
v 0.490960 0.023716 0.000000
v 0.481527 0.023716 0.095782
v 0.453588 0.023716 0.187882
v 0.408219 0.023716 0.272763
v 0.347161 0.023716 0.347161
v 0.272763 0.023716 0.408219
v 0.187882 0.023716 0.453588
v 0.095782 0.023716 0.481527
v 0.000000 1.903992 0.490960
v -0.095782 1.903992 0.481527
v -0.187882 1.903992 0.453588
v -0.272763 1.903992 0.408219
v 0.095782 1.903992 -0.481527
v -0.347161 1.903992 0.347161
v 0.187882 1.903992 -0.453588
v -0.408219 1.903992 0.272763
v 0.272763 1.903992 -0.408219
v -0.453588 1.903992 0.187882
v 0.347161 1.903992 -0.347161
v 0.408219 1.903992 -0.272763
v -0.481527 1.903992 0.095782
v 0.453588 1.903992 -0.187882
v -0.490960 1.903992 -0.000000
v 0.187882 1.903992 0.453588
v 0.481527 1.903992 -0.095782
v -0.481527 1.903992 -0.095782
v 0.095782 1.903992 0.481527
v 0.490960 1.903992 0.000000
v -0.453588 1.903992 -0.187882
v 0.481527 1.903992 0.095782
v -0.408219 1.903992 -0.272763
v 0.453588 1.903992 0.187882
v -0.347161 1.903992 -0.347161
v 0.408219 1.903992 0.272763
v -0.272763 1.903992 -0.408219
v 0.347161 1.903992 0.347161
v -0.187882 1.903992 -0.453588
v 0.272763 1.903992 0.408219
v 0.000000 1.903992 -0.490960
v -0.095782 1.903992 -0.481527
vt 1.000000 0.500000
vt 0.968750 0.970069
vt 0.968750 0.500000
vt 0.937500 0.970069
vt 0.937500 0.500000
vt 0.906250 0.970069
vt 0.906250 0.500000
vt 0.875000 0.970069
vt 0.875000 0.500000
vt 0.843750 0.500000
vt 0.843750 0.970069
vt 0.812500 0.500000
vt 0.812500 0.970069
vt 0.781250 0.500000
vt 0.781250 0.970069
vt 0.750000 0.500000
vt 0.750000 0.970069
vt 0.718750 0.500000
vt 0.718750 0.970069
vt 0.687500 0.500000
vt 0.687500 0.970069
vt 0.656250 0.500000
vt 0.656250 0.970069
vt 0.625000 0.500000
vt 0.625000 0.970069
vt 0.593750 0.500000
vt 0.593750 0.970069
vt 0.562500 0.500000
vt 0.562500 0.970069
vt 0.531250 0.500000
vt 0.531250 0.970069
vt 0.500000 0.500000
vt 0.500000 0.970069
vt 0.468750 0.500000
vt 0.468750 0.970069
vt 0.437500 0.500000
vt 0.437500 0.970069
vt 0.406250 0.500000
vt 0.406250 0.970069
vt 0.375000 0.500000
vt 0.375000 0.970069
vt 0.343750 0.970069
vt 0.343750 0.500000
vt 0.312500 0.970069
vt 0.312500 0.500000
vt 0.281250 0.970069
vt 0.281250 0.500000
vt 0.250000 0.970069
vt 0.250000 0.500000
vt 0.218750 0.970069
vt 0.218750 0.500000
vt 0.187500 0.970069
vt 0.187500 0.500000
vt 0.156250 0.970069
vt 0.156250 0.500000
vt 0.125000 0.970069
vt 0.125000 0.500000
vt 0.093750 0.970069
vt 0.093750 0.500000
vt 0.062500 0.970069
vt 0.062500 0.500000
vt 0.031250 0.970069
vt 0.031250 0.500000
vt 0.000000 0.970069
vt 0.000000 0.500000
vt 0.971731 0.341844
vt 0.841844 0.028269
vt 0.528269 0.158156
vt 0.296822 0.485388
vt 0.250000 0.490000
vt 0.250000 0.250000
vt 0.341844 0.471731
vt 0.383337 0.449553
vt 0.419706 0.419706
vt 0.449553 0.383337
vt 0.471731 0.341844
vt 0.485388 0.296822
vt 0.490000 0.250000
vt 0.485388 0.203178
vt 0.471731 0.158156
vt 0.449553 0.116663
vt 0.419706 0.080294
vt 0.383337 0.050447
vt 0.341844 0.028269
vt 0.296822 0.014612
vt 0.250000 0.010000
vt 0.203178 0.014612
vt 0.158156 0.028269
vt 0.116663 0.050447
vt 0.080294 0.080294
vt 0.050447 0.116663
vt 0.028269 0.158156
vt 0.014612 0.203178
vt 0.010000 0.250000
vt 0.014612 0.296822
vt 0.028269 0.341844
vt 0.050447 0.383337
vt 0.080294 0.419706
vt 0.116663 0.449553
vt 0.158156 0.471731
vt 0.772988 0.365566
vt 0.750000 0.367831
vt 0.796822 0.485388
vt 0.796822 0.014612
vt 0.772988 0.134434
vt 0.795092 0.141139
vt 0.203178 0.485388
vt 1.000000 0.970069
vt 0.093750 0.970069
vt 0.658156 0.471731
vt 0.703178 0.485388
vt 0.750000 0.490000
vt 0.796822 0.485388
vt 0.841844 0.471731
vt 0.883337 0.449553
vt 0.919706 0.419706
vt 0.949553 0.383337
vt 0.985388 0.296822
vt 0.990000 0.250000
vt 0.985388 0.203178
vt 0.971731 0.158156
vt 0.949553 0.116663
vt 0.919706 0.080294
vt 0.883337 0.050447
vt 0.796822 0.014612
vt 0.750000 0.010000
vt 0.703178 0.014612
vt 0.658156 0.028269
vt 0.616663 0.050447
vt 0.580294 0.080294
vt 0.550447 0.116663
vt 0.514612 0.203178
vt 0.528269 0.341844
vt 0.510000 0.250000
vt 0.514612 0.296822
vt 0.550447 0.383337
vt 0.580294 0.419706
vt 0.616663 0.449553
vt 0.658156 0.471731
vt 0.703178 0.485388
vt 0.704908 0.358861
vt 0.750000 0.490000
vt 0.727012 0.365566
vt 0.684537 0.347972
vt 0.841844 0.471731
vt 0.883337 0.449553
vt 0.815463 0.347973
vt 0.919706 0.419706
vt 0.833319 0.333319
vt 0.847972 0.315463
vt 0.949553 0.383337
vt 0.971731 0.341844
vt 0.858861 0.295092
vt 0.985388 0.296822
vt 0.865567 0.272988
vt 0.580294 0.419706
vt 0.616663 0.449553
vt 0.528269 0.341844
vt 0.550447 0.383337
vt 0.652027 0.315463
vt 0.666681 0.333319
vt 0.510000 0.250000
vt 0.514612 0.296822
vt 0.634434 0.272988
vt 0.641139 0.295092
vt 0.634434 0.227012
vt 0.514612 0.203178
vt 0.632169 0.250000
vt 0.795092 0.358861
vt 0.867831 0.250000
vt 0.990000 0.250000
vt 0.985388 0.203178
vt 0.865566 0.227012
vt 0.858861 0.204908
vt 0.971731 0.158156
vt 0.949553 0.116663
vt 0.919706 0.080294
vt 0.847973 0.184537
vt 0.883337 0.050447
vt 0.833319 0.166681
vt 0.841844 0.028269
vt 0.815463 0.152028
vt 0.750000 0.010000
vt 0.750000 0.132170
vt 0.703178 0.014612
vt 0.727012 0.134434
vt 0.704908 0.141139
vt 0.658156 0.028269
vt 0.616663 0.050447
vt 0.684537 0.152028
vt 0.580294 0.080294
vt 0.550447 0.116663
vt 0.666681 0.166681
vt 0.528269 0.158156
vt 0.652027 0.184537
vt 0.641139 0.204908
vn 0.0000 -0.6857 0.7279
vn -0.1333 -0.7298 0.6705
vn -0.1420 -0.6857 0.7139
vn -0.2616 -0.7298 0.6316
vn -0.2785 -0.6857 0.6725
vn -0.3798 -0.7298 0.5684
vn -0.4044 -0.6857 0.6052
vn -0.4834 -0.7298 0.4834
vn -0.5147 -0.6857 0.5147
vn -0.6052 -0.6857 0.4044
vn -0.5684 -0.7298 0.3798
vn -0.6725 -0.6857 0.2785
vn -0.6316 -0.7298 0.2616
vn -0.7139 -0.6857 0.1420
vn -0.6705 -0.7298 0.1333
vn -0.7279 -0.6857 0.0000
vn -0.6836 -0.7298 0.0000
vn -0.7139 -0.6857 -0.1420
vn -0.6705 -0.7298 -0.1334
vn -0.6725 -0.6857 -0.2785
vn -0.6316 -0.7298 -0.2616
vn -0.6052 -0.6857 -0.4044
vn -0.5684 -0.7298 -0.3798
vn -0.5147 -0.6857 -0.5147
vn -0.4834 -0.7298 -0.4834
vn -0.4044 -0.6857 -0.6052
vn -0.3798 -0.7298 -0.5684
vn -0.2785 -0.6857 -0.6725
vn -0.2616 -0.7298 -0.6316
vn -0.1420 -0.6857 -0.7139
vn -0.1333 -0.7298 -0.6705
vn 0.0000 -0.6857 -0.7279
vn 0.0000 -0.7298 -0.6836
vn 0.1420 -0.6857 -0.7139
vn 0.1333 -0.7298 -0.6705
vn 0.2785 -0.6857 -0.6725
vn 0.2616 -0.7298 -0.6316
vn 0.4044 -0.6857 -0.6052
vn 0.3798 -0.7298 -0.5684
vn 0.5147 -0.6857 -0.5147
vn 0.4834 -0.7298 -0.4834
vn 0.5684 -0.7298 -0.3798
vn 0.6052 -0.6857 -0.4044
vn 0.6316 -0.7298 -0.2616
vn 0.6725 -0.6857 -0.2785
vn 0.6705 -0.7298 -0.1333
vn 0.7139 -0.6857 -0.1420
vn 0.6836 -0.7298 0.0000
vn 0.7279 -0.6857 0.0000
vn 0.6705 -0.7298 0.1333
vn 0.7139 -0.6857 0.1420
vn 0.6316 -0.7298 0.2616
vn 0.6725 -0.6857 0.2785
vn 0.5684 -0.7298 0.3798
vn 0.6052 -0.6857 0.4044
vn 0.4834 -0.7298 0.4834
vn 0.5147 -0.6857 0.5147
vn 0.3798 -0.7298 0.5684
vn 0.4044 -0.6857 0.6052
vn 0.2616 -0.7298 0.6316
vn 0.2785 -0.6857 0.6725
vn 0.1333 -0.7298 0.6705
vn 0.1420 -0.6857 0.7139
vn 0.0000 -0.7298 0.6836
vn 0.1686 -0.5033 -0.8475
vn 0.0000 -0.5033 -0.8641
vn 0.0000 1.0000 0.0000
vn 0.3307 -0.5033 -0.7983
vn 0.4801 -0.5033 -0.7185
vn 0.6110 -0.5033 -0.6110
vn 0.7185 -0.5033 -0.4801
vn 0.7983 -0.5033 -0.3307
vn 0.8475 -0.5033 -0.1686
vn 0.8641 -0.5033 0.0000
vn 0.8475 -0.5033 0.1686
vn 0.7983 -0.5033 0.3307
vn 0.7185 -0.5033 0.4801
vn 0.6110 -0.5033 0.6110
vn 0.4801 -0.5033 0.7185
vn 0.3307 -0.5033 0.7983
vn 0.1686 -0.5033 0.8475
vn 0.0000 -0.5033 0.8641
vn -0.1686 -0.5033 0.8475
vn -0.3307 -0.5033 0.7983
vn -0.4801 -0.5033 0.7185
vn -0.6110 -0.5033 0.6110
vn -0.7185 -0.5033 0.4801
vn -0.7983 -0.5033 0.3307
vn -0.8475 -0.5033 0.1686
vn -0.8641 -0.5033 0.0000
vn -0.8475 -0.5033 -0.1686
vn -0.7983 -0.5033 -0.3307
vn -0.7185 -0.5033 -0.4801
vn -0.6110 -0.5033 -0.6110
vn -0.4801 -0.5033 -0.7185
vn -0.3307 -0.5033 -0.7983
vn -0.1686 -0.5033 -0.8475
usemtl None
s 1
f 1/1/1 67/2/2 4/3/3
f 4/3/3 68/4/4 7/5/5
f 7/5/5 69/6/6 10/7/7
f 10/7/7 71/8/8 13/9/9
f 17/10/10 71/8/8 73/11/11
f 20/12/12 73/11/11 75/13/13
f 23/14/14 75/13/13 78/15/15
f 25/16/16 78/15/15 80/17/17
f 28/18/18 80/17/17 83/19/19
f 31/20/20 83/19/19 86/21/21
f 34/22/22 86/21/21 88/23/23
f 37/24/24 88/23/23 90/25/25
f 40/26/26 90/25/25 92/27/27
f 43/28/28 92/27/27 94/29/29
f 46/30/30 94/29/29 97/31/31
f 50/32/32 97/31/31 96/33/33
f 51/34/34 96/33/33 70/35/35
f 52/36/36 70/35/35 72/37/37
f 53/38/38 72/37/37 74/39/39
f 54/40/40 74/39/39 76/41/41
f 54/40/40 77/42/42 55/43/43
f 55/43/43 79/44/44 56/45/45
f 56/45/45 82/46/46 57/47/47
f 57/47/47 85/48/48 58/49/49
f 58/49/49 87/50/50 59/51/51
f 59/51/51 89/52/52 60/53/53
f 60/53/53 91/54/54 61/55/55
f 61/55/55 93/56/56 62/57/57
f 62/57/57 95/58/58 63/59/59
f 63/59/59 81/60/60 64/61/61
f 64/61/61 84/62/62 65/63/63
f 65/63/63 66/64/64 1/65/1
f 20/66/12 43/67/28 56/68/45
f 3/69/65 2/70/66 49/71/67
f 5/72/68 3/69/65 49/71/67
f 6/73/69 5/72/68 49/71/67
f 8/74/70 6/73/69 49/71/67
f 9/75/71 8/74/70 49/71/67
f 11/76/72 9/75/71 49/71/67
f 12/77/73 11/76/72 49/71/67
f 14/78/74 12/77/73 49/71/67
f 15/79/75 14/78/74 49/71/67
f 16/80/76 15/79/75 49/71/67
f 18/81/77 16/80/76 49/71/67
f 19/82/78 18/81/77 49/71/67
f 21/83/79 19/82/78 49/71/67
f 22/84/80 21/83/79 49/71/67
f 24/85/81 22/84/80 49/71/67
f 24/85/81 49/71/67 26/86/82
f 26/86/82 49/71/67 27/87/83
f 27/87/83 49/71/67 29/88/84
f 29/88/84 49/71/67 30/89/85
f 30/89/85 49/71/67 32/90/86
f 32/90/86 49/71/67 33/91/87
f 33/91/87 49/71/67 35/92/88
f 35/92/88 49/71/67 36/93/89
f 36/93/89 49/71/67 38/94/90
f 49/71/67 39/95/91 38/94/90
f 49/71/67 41/96/92 39/95/91
f 49/71/67 42/97/93 41/96/92
f 49/71/67 44/98/94 42/97/93
f 49/71/67 45/99/95 44/98/94
f 49/71/67 47/100/96 45/99/95
f 70/101/35 96/102/33 3/103/65
f 24/104/81 84/105/62 81/106/60
f 49/71/67 48/107/97 47/100/96
f 49/71/67 2/70/66 48/107/97
f 1/1/1 66/108/64 67/2/2
f 4/3/3 67/2/2 68/4/4
f 7/5/5 68/4/4 69/6/6
f 10/7/7 69/6/6 71/8/8
f 17/10/10 13/9/9 71/8/8
f 20/12/12 17/10/10 73/11/11
f 23/14/14 20/12/12 75/13/13
f 25/16/16 23/14/14 78/15/15
f 28/18/18 25/16/16 80/17/17
f 31/20/20 28/18/18 83/19/19
f 34/22/22 31/20/20 86/21/21
f 37/24/24 34/22/22 88/23/23
f 40/26/26 37/24/24 90/25/25
f 43/28/28 40/26/26 92/27/27
f 46/30/30 43/28/28 94/29/29
f 50/32/32 46/30/30 97/31/31
f 51/34/34 50/32/32 96/33/33
f 52/36/36 51/34/34 70/35/35
f 53/38/38 52/36/36 72/37/37
f 54/40/40 53/38/38 74/39/39
f 54/40/40 76/41/41 77/42/42
f 55/43/43 77/42/42 79/44/44
f 56/45/45 79/44/44 82/46/46
f 57/47/47 82/46/46 85/48/48
f 58/49/49 85/48/48 87/50/50
f 59/51/51 87/50/50 89/52/52
f 60/53/53 89/52/52 91/54/54
f 61/55/55 91/54/54 93/56/56
f 62/57/57 93/56/56 95/58/58
f 63/59/59 95/109/58 81/60/60
f 64/61/61 81/60/60 84/62/62
f 65/63/63 84/62/62 66/64/64
f 64/110/61 65/111/63 1/112/1
f 1/112/1 4/113/3 7/114/5
f 7/114/5 10/115/7 13/116/9
f 13/116/9 17/117/10 20/66/12
f 20/66/12 23/118/14 25/119/16
f 25/119/16 28/120/18 31/121/20
f 31/121/20 34/122/22 37/123/24
f 37/123/24 40/124/26 43/67/28
f 43/67/28 46/125/30 50/126/32
f 50/126/32 51/127/34 52/128/36
f 52/128/36 53/129/38 54/130/40
f 54/130/40 55/131/43 56/68/45
f 56/68/45 57/132/47 60/133/53
f 57/132/47 58/134/49 60/133/53
f 58/134/49 59/135/51 60/133/53
f 60/133/53 61/136/55 62/137/57
f 62/137/57 63/138/59 60/133/53
f 63/138/59 64/110/61 60/133/53
f 64/110/61 1/112/1 20/66/12
f 1/112/1 7/114/5 20/66/12
f 7/114/5 13/116/9 20/66/12
f 20/66/12 25/119/16 43/67/28
f 25/119/16 31/121/20 43/67/28
f 31/121/20 37/123/24 43/67/28
f 43/67/28 50/126/32 52/128/36
f 52/128/36 54/130/40 43/67/28
f 54/130/40 56/68/45 43/67/28
f 56/68/45 60/133/53 64/110/61
f 64/110/61 20/66/12 56/68/45
f 47/139/96 48/140/97 94/141/29
f 48/140/97 2/142/66 97/143/31
f 47/139/96 94/141/29 92/144/27
f 2/142/66 3/103/65 96/102/33
f 3/103/65 5/145/68 70/101/35
f 2/142/66 96/102/33 97/143/31
f 5/145/68 6/146/69 74/147/39
f 6/146/69 8/148/70 76/149/41
f 76/149/41 8/148/70 77/150/42
f 8/148/70 9/151/71 77/150/42
f 9/151/71 11/152/72 79/153/44
f 11/152/72 12/154/73 82/155/46
f 11/152/72 82/155/46 79/153/44
f 9/151/71 79/153/44 77/150/42
f 44/156/94 45/157/95 92/144/27
f 45/157/95 47/139/96 92/144/27
f 41/158/92 42/159/93 88/160/23
f 42/159/93 44/156/94 90/161/25
f 90/161/25 44/156/94 92/144/27
f 38/162/90 39/163/91 83/164/19
f 39/163/91 41/158/92 86/165/21
f 86/165/21 41/158/92 88/160/23
f 78/166/15 36/167/89 38/162/90
f 80/168/17 78/166/15 38/162/90
f 94/141/29 48/140/97 97/143/31
f 42/159/93 90/161/25 88/160/23
f 83/164/19 80/168/17 38/162/90
f 86/165/21 83/164/19 39/163/91
f 6/146/69 76/149/41 74/147/39
f 5/145/68 74/147/39 72/169/37
f 5/145/68 72/169/37 70/101/35
f 85/170/48 82/155/46 12/154/73
f 12/154/73 14/171/74 85/170/48
f 14/171/74 15/172/75 87/173/50
f 87/173/50 15/172/75 89/174/52
f 15/172/75 16/175/76 89/174/52
f 16/175/76 18/176/77 89/174/52
f 18/176/77 19/177/78 91/178/54
f 19/177/78 21/179/79 93/180/56
f 18/176/77 91/178/54 89/174/52
f 21/179/79 22/181/80 95/182/58
f 22/181/80 24/104/81 81/106/60
f 21/179/79 95/182/58 93/180/56
f 24/104/81 26/183/82 66/184/64
f 26/183/82 27/185/83 67/186/2
f 67/186/2 27/185/83 68/187/4
f 27/185/83 29/188/84 68/187/4
f 29/188/84 30/189/85 69/190/6
f 30/189/85 32/191/86 69/190/6
f 32/191/86 33/192/87 71/193/8
f 69/190/6 32/191/86 71/193/8
f 33/192/87 35/194/88 73/195/11
f 35/194/88 36/167/89 75/196/13
f 33/192/87 73/195/11 71/193/8
f 36/167/89 78/166/15 75/196/13
f 75/196/13 73/195/11 35/194/88
f 29/188/84 69/190/6 68/187/4
f 87/173/50 85/170/48 14/171/74
f 91/178/54 19/177/78 93/180/56
f 95/182/58 22/181/80 81/106/60
f 26/183/82 67/186/2 66/184/64
f 24/104/81 66/184/64 84/105/62
